<svg width="9" height="8" viewBox="0 0 9 8" fill="none" xmlns="http://www.w3.org/2000/svg">
<path d="M8.36106 3.98511L4.5225 7.99987L0.661315 3.98511C0.451755 3.77023 0.285297 3.51388 0.171667 3.23106C0.0580364 2.94823 -0.000488281 2.64459 -0.000488281 2.33788C-0.000488281 2.03116 0.0580364 1.72752 0.171667 1.4447C0.285297 1.16187 0.451755 0.905529 0.661315 0.690645C1.08159 0.252185 1.65019 0.00404952 2.24423 -0.000129547C2.54083 -0.0032239 2.83497 0.0563786 3.10894 0.175091C3.38292 0.293803 3.63106 0.469172 3.83845 0.690645L4.12111 0.985848C4.17367 1.04119 4.23619 1.08511 4.30508 1.11508C4.37397 1.14506 4.44787 1.16049 4.5225 1.16049C4.59713 1.16049 4.67102 1.14506 4.73991 1.11508C4.8088 1.08511 4.87132 1.04119 4.92388 0.985848L5.20654 0.690645C5.62873 0.26147 6.19463 0.0213251 6.7838 0.0213251C7.37297 0.0213251 7.93887 0.26147 8.36106 0.690645C8.56993 0.905937 8.73578 1.16241 8.84898 1.44518C8.96217 1.72795 9.02046 2.03139 9.02046 2.33788C9.02046 2.64437 8.96217 2.9478 8.84898 3.23057C8.73578 3.51334 8.56993 3.76982 8.36106 3.98511Z" fill="#3E3C40"/>
</svg>
